<svg xmlns="http://www.w3.org/2000/svg" xmlns:xlink="http://www.w3.org/1999/xlink" width="220" zoomAndPan="magnify" viewBox="0 0 165 60" height="80" preserveAspectRatio="xMidYMid meet" version="1.0"><defs><g/><clipPath id="5ca655ebf2"><rect x="0" width="33" y="0" height="47"/></clipPath><clipPath id="e6a52d762e"><path d="M 25 32 L 40.601562 32 L 40.601562 34 L 25 34 Z M 25 32 " clip-rule="nonzero"/></clipPath><clipPath id="8115df01af"><path d="M 40 27 L 40.601562 27 L 40.601562 34 L 40 34 Z M 40 27 " clip-rule="nonzero"/></clipPath><clipPath id="254dd492f7"><path d="M 40 27 L 40.601562 27 L 40.601562 28 L 40 28 Z M 40 27 " clip-rule="nonzero"/></clipPath><clipPath id="cc02ea69df"><path d="M 30 17 L 40.601562 17 L 40.601562 28 L 30 28 Z M 30 17 " clip-rule="nonzero"/></clipPath><clipPath id="ff74fe9829"><path d="M 40 22 L 40.601562 22 L 40.601562 23 L 40 23 Z M 40 22 " clip-rule="nonzero"/></clipPath><clipPath id="520442880a"><path d="M 30 11 L 40.601562 11 L 40.601562 23 L 30 23 Z M 30 11 " clip-rule="nonzero"/></clipPath><clipPath id="195ff057fb"><path d="M 40 11 L 40.601562 11 L 40.601562 13 L 40 13 Z M 40 11 " clip-rule="nonzero"/></clipPath><clipPath id="27707a7815"><path d="M 8 10.882812 L 12 10.882812 L 12 14 L 8 14 Z M 8 10.882812 " clip-rule="nonzero"/></clipPath><clipPath id="bbd5799284"><path d="M 3.148438 16 L 6 16 L 6 19 L 3.148438 19 Z M 3.148438 16 " clip-rule="nonzero"/></clipPath><clipPath id="bbc2d154d2"><path d="M 22 31 L 26 31 L 26 34.132812 L 22 34.132812 Z M 22 31 " clip-rule="nonzero"/></clipPath><clipPath id="abecf56d7d"><path d="M 38 10.882812 L 40.601562 10.882812 L 40.601562 14 L 38 14 Z M 38 10.882812 " clip-rule="nonzero"/></clipPath><clipPath id="add21ef395"><rect x="0" width="102" y="0" height="47"/></clipPath><clipPath id="7d9b2cf308"><rect x="0" width="163" y="0" height="20"/></clipPath><clipPath id="e1d5527678"><rect x="0" width="32" y="0" height="47"/></clipPath></defs><g transform="matrix(1, 0, 0, 1, 0, -0.000000000000001479)"><g clip-path="url(#5ca655ebf2)"><g fill="#f27f20" fill-opacity="1"><g transform="translate(-0.501342, 36.109925)"><g><path d="M 16.125 0.4375 C 14.53125 0.4375 13.054688 0.332031 11.703125 0.125 C 10.359375 -0.0703125 8.960938 -0.425781 7.515625 -0.9375 C 5.941406 -1.46875 4.707031 -2.332031 3.8125 -3.53125 C 2.925781 -4.726562 2.484375 -6.1875 2.484375 -7.90625 L 2.484375 -20.53125 C 2.484375 -21.945312 2.800781 -23.21875 3.4375 -24.34375 C 4.082031 -25.476562 4.90625 -26.367188 5.90625 -27.015625 C 6.800781 -27.578125 7.898438 -28.050781 9.203125 -28.4375 C 10.503906 -28.820312 11.71875 -29.0625 12.84375 -29.15625 C 13.875 -29.238281 14.96875 -29.28125 16.125 -29.28125 C 17.488281 -29.28125 18.675781 -29.226562 19.6875 -29.125 C 20.695312 -29.019531 21.820312 -28.804688 23.0625 -28.484375 C 24.488281 -28.066406 25.660156 -27.5625 26.578125 -26.96875 C 27.492188 -26.375 28.265625 -25.546875 28.890625 -24.484375 C 29.535156 -23.390625 29.859375 -22.070312 29.859375 -20.53125 L 29.859375 -7.90625 C 29.859375 -6.3125 29.4375 -4.9375 28.59375 -3.78125 C 27.75 -2.625 26.585938 -1.75 25.109375 -1.15625 C 22.441406 -0.09375 19.445312 0.4375 16.125 0.4375 Z M 16.21875 -4.484375 C 17.195312 -4.484375 18.019531 -4.519531 18.6875 -4.59375 C 19.351562 -4.664062 20.039062 -4.804688 20.75 -5.015625 C 21.457031 -5.222656 22 -5.570312 22.375 -6.0625 C 22.75 -6.550781 22.9375 -7.164062 22.9375 -7.90625 L 22.9375 -20.578125 C 22.9375 -21.941406 22.382812 -22.910156 21.28125 -23.484375 C 20.1875 -24.066406 18.484375 -24.359375 16.171875 -24.359375 C 13.859375 -24.359375 12.15625 -24.070312 11.0625 -23.5 C 9.96875 -22.9375 9.421875 -21.960938 9.421875 -20.578125 L 9.421875 -7.90625 C 9.421875 -7.164062 9.613281 -6.550781 10 -6.0625 C 10.382812 -5.570312 10.945312 -5.222656 11.6875 -5.015625 C 12.394531 -4.804688 13.082031 -4.664062 13.75 -4.59375 C 14.414062 -4.519531 15.238281 -4.484375 16.21875 -4.484375 Z M 16.21875 -4.484375 "/></g></g></g></g></g><g clip-path="url(#e6a52d762e)"><path fill="#263238" d="M 25.394531 32.5625 L 40.921875 32.5625 C 41.058594 32.5625 41.167969 32.675781 41.167969 32.8125 C 41.167969 32.949219 41.058594 33.058594 40.921875 33.058594 L 25.394531 33.058594 C 25.257812 33.058594 25.144531 32.949219 25.144531 32.8125 C 25.144531 32.675781 25.257812 32.5625 25.394531 32.5625 Z M 25.394531 32.5625 " fill-opacity="1" fill-rule="nonzero"/></g><g clip-path="url(#8115df01af)"><path fill="#263238" d="M 40.746094 32.636719 L 45.921875 27.460938 C 46.019531 27.363281 46.175781 27.363281 46.273438 27.460938 C 46.371094 27.554688 46.371094 27.714844 46.273438 27.808594 L 41.097656 32.984375 C 41 33.082031 40.84375 33.082031 40.746094 32.984375 C 40.648438 32.890625 40.648438 32.730469 40.746094 32.636719 Z M 40.746094 32.636719 " fill-opacity="1" fill-rule="nonzero"/></g><g clip-path="url(#254dd492f7)"><path fill="#263238" d="M 77.152344 27.882812 L 40.921875 27.882812 C 40.785156 27.882812 40.675781 27.769531 40.675781 27.632812 C 40.675781 27.496094 40.785156 27.386719 40.921875 27.386719 L 77.152344 27.386719 C 77.289062 27.386719 77.402344 27.496094 77.402344 27.632812 C 77.402344 27.769531 77.289062 27.882812 77.152344 27.882812 Z M 77.152344 27.882812 " fill-opacity="1" fill-rule="nonzero"/></g><g clip-path="url(#cc02ea69df)"><path fill="#263238" d="M 40.746094 27.808594 L 30.394531 17.457031 C 30.296875 17.359375 30.296875 17.203125 30.394531 17.109375 C 30.492188 17.011719 30.648438 17.011719 30.746094 17.109375 L 41.097656 27.460938 C 41.195312 27.554688 41.195312 27.714844 41.097656 27.808594 C 41 27.90625 40.84375 27.90625 40.746094 27.808594 Z M 40.746094 27.808594 " fill-opacity="1" fill-rule="nonzero"/></g><path fill="#263238" d="M 30.570312 17.53125 L 20.21875 17.53125 C 20.082031 17.53125 19.96875 17.417969 19.96875 17.28125 C 19.96875 17.144531 20.082031 17.035156 20.21875 17.035156 L 30.570312 17.035156 C 30.707031 17.035156 30.816406 17.144531 30.816406 17.28125 C 30.816406 17.417969 30.707031 17.53125 30.570312 17.53125 Z M 30.570312 17.53125 " fill-opacity="1" fill-rule="nonzero"/><path fill="#263238" d="M 35.921875 22.632812 L 30.746094 27.808594 C 30.648438 27.90625 30.492188 27.90625 30.394531 27.808594 C 30.296875 27.714844 30.296875 27.554688 30.394531 27.460938 L 35.570312 22.285156 C 35.667969 22.1875 35.824219 22.1875 35.921875 22.285156 C 36.015625 22.378906 36.015625 22.535156 35.921875 22.632812 Z M 35.921875 22.632812 " fill-opacity="1" fill-rule="nonzero"/><path fill="#263238" d="M 30.570312 27.882812 L 15.042969 27.882812 C 14.90625 27.882812 14.792969 27.769531 14.792969 27.632812 C 14.792969 27.496094 14.90625 27.386719 15.042969 27.386719 L 30.570312 27.386719 C 30.707031 27.386719 30.816406 27.496094 30.816406 27.632812 C 30.816406 27.769531 30.707031 27.882812 30.570312 27.882812 Z M 30.570312 27.882812 " fill-opacity="1" fill-rule="nonzero"/><g clip-path="url(#ff74fe9829)"><path fill="#263238" d="M 77.152344 22.707031 L 40.921875 22.707031 C 40.785156 22.707031 40.675781 22.59375 40.675781 22.457031 C 40.675781 22.320312 40.785156 22.210938 40.921875 22.210938 L 77.152344 22.210938 C 77.289062 22.210938 77.402344 22.320312 77.402344 22.457031 C 77.402344 22.59375 77.289062 22.707031 77.152344 22.707031 Z M 77.152344 22.707031 " fill-opacity="1" fill-rule="nonzero"/></g><g clip-path="url(#520442880a)"><path fill="#263238" d="M 40.746094 22.632812 L 30.394531 12.28125 C 30.296875 12.183594 30.296875 12.027344 30.394531 11.929688 C 30.492188 11.835938 30.648438 11.835938 30.746094 11.929688 L 41.097656 22.285156 C 41.195312 22.378906 41.195312 22.535156 41.097656 22.632812 C 41 22.730469 40.84375 22.730469 40.746094 22.632812 Z M 40.746094 22.632812 " fill-opacity="1" fill-rule="nonzero"/></g><path fill="#263238" d="M 30.570312 12.355469 L 9.867188 12.355469 C 9.730469 12.355469 9.617188 12.242188 9.617188 12.105469 C 9.617188 11.96875 9.730469 11.859375 9.867188 11.859375 L 30.570312 11.859375 C 30.707031 11.859375 30.816406 11.96875 30.816406 12.105469 C 30.816406 12.242188 30.707031 12.355469 30.570312 12.355469 Z M 30.570312 12.355469 " fill-opacity="1" fill-rule="nonzero"/><path fill="#263238" d="M 20.394531 12.28125 L 15.214844 17.457031 C 15.121094 17.554688 14.964844 17.554688 14.867188 17.457031 C 14.769531 17.359375 14.769531 17.203125 14.867188 17.109375 L 20.042969 11.929688 C 20.140625 11.835938 20.296875 11.835938 20.394531 11.929688 C 20.488281 12.027344 20.488281 12.183594 20.394531 12.28125 Z M 20.394531 12.28125 " fill-opacity="1" fill-rule="nonzero"/><path fill="#263238" d="M 15.042969 17.53125 L 4.691406 17.53125 C 4.554688 17.53125 4.441406 17.417969 4.441406 17.28125 C 4.441406 17.144531 4.554688 17.035156 4.691406 17.035156 L 15.042969 17.035156 C 15.179688 17.035156 15.289062 17.144531 15.289062 17.28125 C 15.289062 17.417969 15.179688 17.53125 15.042969 17.53125 Z M 15.042969 17.53125 " fill-opacity="1" fill-rule="nonzero"/><g clip-path="url(#195ff057fb)"><path fill="#263238" d="M 51.273438 12.355469 L 40.921875 12.355469 C 40.785156 12.355469 40.675781 12.242188 40.675781 12.105469 C 40.675781 11.96875 40.785156 11.859375 40.921875 11.859375 L 51.273438 11.859375 C 51.410156 11.859375 51.519531 11.96875 51.519531 12.105469 C 51.519531 12.242188 51.410156 12.355469 51.273438 12.355469 Z M 51.273438 12.355469 " fill-opacity="1" fill-rule="nonzero"/></g><path fill="#263238" d="M 13.828125 27.558594 C 13.867188 26.890625 14.445312 26.378906 15.117188 26.421875 C 15.785156 26.460938 16.296875 27.039062 16.253906 27.710938 C 16.214844 28.378906 15.636719 28.890625 14.96875 28.847656 C 14.296875 28.808594 13.785156 28.230469 13.828125 27.558594 Z M 13.828125 27.558594 " fill-opacity="1" fill-rule="nonzero"/><path fill="#263238" d="M 19.003906 17.207031 C 19.042969 16.539062 19.621094 16.027344 20.292969 16.066406 C 20.960938 16.109375 21.472656 16.6875 21.433594 17.355469 C 21.390625 18.027344 20.8125 18.539062 20.144531 18.496094 C 19.472656 18.457031 18.960938 17.878906 19.003906 17.207031 Z M 19.003906 17.207031 " fill-opacity="1" fill-rule="nonzero"/><g clip-path="url(#27707a7815)"><path fill="#263238" d="M 8.652344 12.03125 C 8.691406 11.359375 9.269531 10.851562 9.941406 10.890625 C 10.609375 10.933594 11.121094 11.511719 11.078125 12.179688 C 11.039062 12.851562 10.460938 13.363281 9.789062 13.320312 C 9.121094 13.28125 8.609375 12.703125 8.652344 12.03125 Z M 8.652344 12.03125 " fill-opacity="1" fill-rule="nonzero"/></g><g clip-path="url(#bbd5799284)"><path fill="#263238" d="M 3.476562 17.207031 C 3.515625 16.539062 4.09375 16.027344 4.765625 16.066406 C 5.433594 16.109375 5.945312 16.6875 5.902344 17.355469 C 5.863281 18.027344 5.285156 18.539062 4.613281 18.496094 C 3.945312 18.457031 3.433594 17.878906 3.476562 17.207031 Z M 3.476562 17.207031 " fill-opacity="1" fill-rule="nonzero"/></g><g clip-path="url(#bbc2d154d2)"><path fill="#263238" d="M 22.785156 32.65625 C 22.835938 31.933594 23.464844 31.386719 24.1875 31.4375 C 24.910156 31.492188 25.453125 32.117188 25.402344 32.839844 C 25.351562 33.5625 24.722656 34.105469 24 34.054688 C 23.277344 34.003906 22.734375 33.378906 22.785156 32.65625 M 23.304688 32.691406 C 23.277344 33.125 23.601562 33.503906 24.039062 33.535156 C 24.472656 33.566406 24.851562 33.238281 24.882812 32.804688 C 24.914062 32.367188 24.585938 31.992188 24.148438 31.960938 C 23.714844 31.929688 23.335938 32.257812 23.304688 32.691406 Z M 23.304688 32.691406 " fill-opacity="1" fill-rule="nonzero"/></g><g clip-path="url(#abecf56d7d)"><path fill="#263238" d="M 38.359375 11.949219 C 38.414062 11.226562 39.039062 10.679688 39.761719 10.734375 C 40.484375 10.785156 41.03125 11.410156 40.976562 12.132812 C 40.925781 12.855469 40.300781 13.402344 39.578125 13.351562 C 38.855469 13.296875 38.308594 12.671875 38.359375 11.949219 M 38.882812 11.984375 C 38.851562 12.421875 39.179688 12.796875 39.613281 12.828125 C 40.050781 12.859375 40.425781 12.53125 40.457031 12.097656 C 40.488281 11.664062 40.160156 11.285156 39.726562 11.253906 C 39.289062 11.222656 38.914062 11.550781 38.882812 11.984375 Z M 38.882812 11.984375 " fill-opacity="1" fill-rule="nonzero"/></g><g transform="matrix(1, 0, 0, 1, 31, -0.000000000000001479)"><g clip-path="url(#add21ef395)"><g fill="#f27f20" fill-opacity="1"><g transform="translate(0.692351, 36.383263)"><g><path d="M 3.109375 -28.828125 L 14.796875 -28.828125 C 17.546875 -28.828125 19.664062 -28.625 21.15625 -28.21875 C 22.65625 -27.820312 23.71875 -27.1875 24.34375 -26.3125 C 24.96875 -25.445312 25.28125 -24.226562 25.28125 -22.65625 L 25.28125 -19.09375 C 25.28125 -18.300781 24.957031 -17.546875 24.3125 -16.828125 C 23.675781 -16.117188 22.929688 -15.632812 22.078125 -15.375 L 22.078125 -15.140625 C 23.203125 -15.023438 24.226562 -14.546875 25.15625 -13.703125 C 26.09375 -12.859375 26.5625 -11.921875 26.5625 -10.890625 L 26.5625 -6.4375 C 26.5625 -4.101562 25.628906 -2.445312 23.765625 -1.46875 C 21.898438 -0.488281 19.015625 0 15.109375 0 L 3.109375 0 Z M 14.796875 -17.109375 C 15.890625 -17.109375 16.703125 -17.195312 17.234375 -17.375 C 17.765625 -17.550781 18.125 -17.835938 18.3125 -18.234375 C 18.507812 -18.628906 18.609375 -19.210938 18.609375 -19.984375 L 18.609375 -21.40625 C 18.609375 -22.09375 18.519531 -22.601562 18.34375 -22.9375 C 18.164062 -23.28125 17.800781 -23.523438 17.25 -23.671875 C 16.707031 -23.828125 15.84375 -23.90625 14.65625 -23.90625 L 10.046875 -23.90625 L 10.046875 -17.109375 Z M 14.96875 -4.9375 C 16.65625 -4.9375 17.851562 -5.125 18.5625 -5.5 C 19.28125 -5.882812 19.640625 -6.507812 19.640625 -7.375 L 19.640625 -9.6875 C 19.640625 -10.75 19.363281 -11.5 18.8125 -11.9375 C 18.257812 -12.382812 17.289062 -12.609375 15.90625 -12.609375 L 10.046875 -12.609375 L 10.046875 -4.9375 Z M 14.96875 -4.9375 "/></g></g></g><g fill="#f27f20" fill-opacity="1"><g transform="translate(28.899883, 36.383263)"><g><path d="M 3.109375 -28.828125 L 10.046875 -28.828125 L 10.046875 -4.9375 L 24.203125 -4.9375 L 24.203125 0 L 3.109375 0 Z M 3.109375 -28.828125 "/></g></g></g><g fill="#f27f20" fill-opacity="1"><g transform="translate(54.664239, 36.383263)"><g><path d="M 3.109375 -28.828125 L 10.046875 -28.828125 L 10.046875 0 L 3.109375 0 Z M 3.109375 -28.828125 "/></g></g></g><g fill="#f27f20" fill-opacity="1"><g transform="translate(67.812948, 36.383263)"><g><path d="M 16.125 0.4375 C 14.519531 0.4375 13.046875 0.332031 11.703125 0.125 C 10.359375 -0.0703125 8.957031 -0.425781 7.5 -0.9375 C 5.9375 -1.46875 4.707031 -2.332031 3.8125 -3.53125 C 2.925781 -4.726562 2.484375 -6.1875 2.484375 -7.90625 L 2.484375 -20.515625 C 2.484375 -21.941406 2.800781 -23.21875 3.4375 -24.34375 C 4.070312 -25.46875 4.894531 -26.359375 5.90625 -27.015625 C 6.789062 -27.578125 7.882812 -28.046875 9.1875 -28.421875 C 10.5 -28.804688 11.71875 -29.046875 12.84375 -29.140625 C 13.875 -29.234375 14.96875 -29.28125 16.125 -29.28125 C 17.488281 -29.28125 18.671875 -29.226562 19.671875 -29.125 C 20.679688 -29.019531 21.8125 -28.800781 23.0625 -28.46875 C 24.476562 -28.0625 25.644531 -27.5625 26.5625 -26.96875 C 27.476562 -26.375 28.25 -25.539062 28.875 -24.46875 C 29.519531 -23.375 29.84375 -22.054688 29.84375 -20.515625 L 29.84375 -12.65625 C 29.84375 -8.269531 28.628906 -5.707031 26.203125 -4.96875 L 32.515625 -4.96875 L 32.515625 0 L 23.0625 0 C 22.726562 0 21.71875 0.0703125 20.03125 0.21875 C 18.34375 0.363281 17.039062 0.4375 16.125 0.4375 Z M 16.21875 -4.484375 C 17.195312 -4.484375 18.015625 -4.519531 18.671875 -4.59375 C 19.335938 -4.664062 20.03125 -4.804688 20.75 -5.015625 C 21.457031 -5.222656 21.992188 -5.570312 22.359375 -6.0625 C 22.734375 -6.550781 22.921875 -7.164062 22.921875 -7.90625 L 22.921875 -20.5625 C 22.921875 -21.925781 22.375 -22.894531 21.28125 -23.46875 C 20.1875 -24.050781 18.484375 -24.34375 16.171875 -24.34375 C 13.859375 -24.34375 12.15625 -24.0625 11.0625 -23.5 C 9.96875 -22.9375 9.421875 -21.957031 9.421875 -20.5625 L 9.421875 -7.90625 C 9.421875 -7.164062 9.613281 -6.550781 10 -6.0625 C 10.382812 -5.570312 10.945312 -5.222656 11.6875 -5.015625 C 12.394531 -4.804688 13.082031 -4.664062 13.75 -4.59375 C 14.414062 -4.519531 15.238281 -4.484375 16.21875 -4.484375 Z M 16.21875 -4.484375 "/></g></g></g></g></g><g transform="matrix(1, 0, 0, 1, 2, 38)"><g clip-path="url(#7d9b2cf308)"><g fill="#ffffff" fill-opacity="1"><g transform="translate(0.489792, 15.399259)"><g><path d="M 5.3125 0.15625 C 2.457031 0.15625 1.03125 -0.765625 1.03125 -2.609375 L 1.03125 -7.4375 C 1.03125 -9.394531 2.457031 -10.375 5.3125 -10.375 C 8.195312 -10.375 9.640625 -9.398438 9.640625 -7.453125 L 9.640625 -2.609375 C 9.640625 -1.628906 9.238281 -0.921875 8.4375 -0.484375 C 7.644531 -0.0546875 6.601562 0.15625 5.3125 0.15625 Z M 5.34375 -0.859375 C 7.226562 -0.859375 8.171875 -1.445312 8.171875 -2.625 L 8.171875 -7.484375 C 8.171875 -8.742188 7.222656 -9.375 5.328125 -9.375 C 4.421875 -9.375 3.722656 -9.234375 3.234375 -8.953125 C 2.742188 -8.671875 2.5 -8.179688 2.5 -7.484375 L 2.5 -2.625 C 2.5 -1.445312 3.445312 -0.859375 5.34375 -0.859375 Z M 5.34375 -0.859375 "/></g></g></g><g fill="#ffffff" fill-opacity="1"><g transform="translate(11.952897, 15.399259)"><g><path d="M 1.328125 -10.21875 L 4.96875 -10.21875 C 5.84375 -10.21875 6.535156 -10.125 7.046875 -9.9375 C 7.515625 -9.769531 7.832031 -9.5625 8 -9.3125 C 8.164062 -9.0625 8.25 -8.71875 8.25 -8.28125 L 8.25 -6.90625 C 8.25 -6.5 8.128906 -6.179688 7.890625 -5.953125 C 7.660156 -5.734375 7.3125 -5.566406 6.84375 -5.453125 L 6.84375 -5.390625 C 7.394531 -5.296875 7.84375 -5.101562 8.1875 -4.8125 C 8.53125 -4.53125 8.703125 -4.175781 8.703125 -3.75 L 8.703125 -2.03125 C 8.703125 -1.28125 8.421875 -0.753906 7.859375 -0.453125 C 7.304688 -0.148438 6.378906 0 5.078125 0 L 1.328125 0 Z M 5.015625 -5.75 C 5.660156 -5.75 6.117188 -5.84375 6.390625 -6.03125 C 6.671875 -6.226562 6.8125 -6.535156 6.8125 -6.953125 L 6.8125 -8.15625 C 6.8125 -8.539062 6.671875 -8.8125 6.390625 -8.96875 C 6.109375 -9.125 5.632812 -9.203125 4.96875 -9.203125 L 2.84375 -9.203125 L 2.84375 -5.75 Z M 5.078125 -1.046875 C 5.847656 -1.046875 6.390625 -1.128906 6.703125 -1.296875 C 7.015625 -1.453125 7.171875 -1.71875 7.171875 -2.09375 L 7.171875 -3.640625 C 7.171875 -3.910156 7.113281 -4.125 7 -4.28125 C 6.894531 -4.445312 6.726562 -4.566406 6.5 -4.640625 C 6.269531 -4.703125 6.066406 -4.738281 5.890625 -4.75 C 5.710938 -4.769531 5.441406 -4.78125 5.078125 -4.78125 L 2.84375 -4.78125 L 2.84375 -1.046875 Z M 5.078125 -1.046875 "/></g></g></g><g fill="#ffffff" fill-opacity="1"><g transform="translate(22.378227, 15.399259)"><g><path d="M 1.328125 -10.21875 L 2.84375 -10.21875 L 2.84375 -1.0625 L 7.875 -1.0625 L 7.875 0 L 1.328125 0 Z M 1.328125 -10.21875 "/></g></g></g><g fill="#ffffff" fill-opacity="1"><g transform="translate(31.341239, 15.399259)"><g><path d="M 1.328125 -10.21875 L 2.84375 -10.21875 L 2.84375 0 L 1.328125 0 Z M 1.328125 -10.21875 "/></g></g></g><g fill="#ffffff" fill-opacity="1"><g transform="translate(36.294679, 15.399259)"><g><path d="M 5.296875 0 C 2.429688 0 1 -0.921875 1 -2.765625 L 1 -7.4375 C 1 -9.394531 2.429688 -10.375 5.296875 -10.375 C 8.171875 -10.375 9.609375 -9.398438 9.609375 -7.453125 L 9.609375 -3.234375 C 9.609375 -2.273438 9.144531 -1.484375 8.21875 -0.859375 L 10.734375 -0.859375 L 10.734375 0 Z M 5.328125 -1.015625 C 7.210938 -1.015625 8.15625 -1.601562 8.15625 -2.78125 L 8.15625 -7.484375 C 8.15625 -8.742188 7.207031 -9.375 5.3125 -9.375 C 4.894531 -9.375 4.535156 -9.347656 4.234375 -9.296875 C 3.929688 -9.253906 3.640625 -9.171875 3.359375 -9.046875 C 2.765625 -8.765625 2.46875 -8.242188 2.46875 -7.484375 L 2.46875 -2.78125 C 2.46875 -1.601562 3.421875 -1.015625 5.328125 -1.015625 Z M 5.328125 -1.015625 "/></g></g></g><g fill="#ffffff" fill-opacity="1"><g transform="translate(47.710612, 15.399259)"><g><path d="M 4.296875 -10.21875 L 6.0625 -10.21875 L 10.015625 0 L 8.4375 0 L 7.265625 -3.09375 L 2.890625 -3.09375 L 1.75 0 L 0.234375 0 Z M 6.890625 -4.15625 L 5.15625 -8.765625 L 5.015625 -8.765625 L 3.28125 -4.15625 Z M 6.890625 -4.15625 "/></g></g></g><g fill="#ffffff" fill-opacity="1"><g transform="translate(58.749174, 15.399259)"><g/></g></g><g fill="#ffffff" fill-opacity="1"><g transform="translate(63.152277, 15.399259)"><g><path d="M 1.328125 -10.21875 L 2.84375 -10.21875 L 2.84375 0 L 1.328125 0 Z M 1.328125 -10.21875 "/></g></g></g><g fill="#ffffff" fill-opacity="1"><g transform="translate(68.105718, 15.399259)"><g><path d="M 3.84375 -9.140625 L 0.375 -9.140625 L 0.375 -10.21875 L 8.828125 -10.21875 L 8.828125 -9.140625 L 5.375 -9.140625 L 5.375 0 L 3.84375 0 Z M 3.84375 -9.140625 "/></g></g></g><g fill="#ffffff" fill-opacity="1"><g transform="translate(78.090782, 15.399259)"><g/></g></g><g fill="#ffffff" fill-opacity="1"><g transform="translate(82.493886, 15.399259)"><g><path d="M 4.265625 0.15625 C 3.390625 0.15625 2.351562 0.0703125 1.15625 -0.09375 L 1.15625 -1.375 C 2.363281 -1.101562 3.429688 -0.96875 4.359375 -0.96875 C 5.128906 -0.96875 5.691406 -1.054688 6.046875 -1.234375 C 6.410156 -1.410156 6.59375 -1.734375 6.59375 -2.203125 L 6.59375 -3.53125 C 6.59375 -3.96875 6.46875 -4.273438 6.21875 -4.453125 C 5.96875 -4.628906 5.523438 -4.71875 4.890625 -4.71875 L 3.703125 -4.71875 C 2.703125 -4.71875 1.988281 -4.914062 1.5625 -5.3125 C 1.144531 -5.71875 0.9375 -6.335938 0.9375 -7.171875 L 0.9375 -8 C 0.9375 -8.550781 1.0625 -9 1.3125 -9.34375 C 1.5625 -9.6875 1.976562 -9.941406 2.5625 -10.109375 C 3.144531 -10.285156 3.941406 -10.375 4.953125 -10.375 C 5.640625 -10.375 6.515625 -10.316406 7.578125 -10.203125 L 7.578125 -9.046875 C 6.390625 -9.222656 5.476562 -9.3125 4.84375 -9.3125 C 3.875 -9.3125 3.226562 -9.21875 2.90625 -9.03125 C 2.582031 -8.832031 2.421875 -8.503906 2.421875 -8.046875 L 2.421875 -6.875 C 2.421875 -6.519531 2.546875 -6.257812 2.796875 -6.09375 C 3.054688 -5.9375 3.503906 -5.859375 4.140625 -5.859375 L 5.359375 -5.859375 C 6.066406 -5.859375 6.613281 -5.769531 7 -5.59375 C 7.394531 -5.425781 7.675781 -5.171875 7.84375 -4.828125 C 8.007812 -4.492188 8.09375 -4.039062 8.09375 -3.46875 L 8.09375 -2.71875 C 8.09375 -2 7.957031 -1.425781 7.6875 -1 C 7.414062 -0.582031 7.003906 -0.285156 6.453125 -0.109375 C 5.898438 0.0664062 5.171875 0.15625 4.265625 0.15625 Z M 4.265625 0.15625 "/></g></g></g><g fill="#ffffff" fill-opacity="1"><g transform="translate(92.227368, 15.399259)"><g><path d="M 5.3125 0.15625 C 2.457031 0.15625 1.03125 -0.765625 1.03125 -2.609375 L 1.03125 -7.4375 C 1.03125 -9.394531 2.457031 -10.375 5.3125 -10.375 C 8.195312 -10.375 9.640625 -9.398438 9.640625 -7.453125 L 9.640625 -2.609375 C 9.640625 -1.628906 9.238281 -0.921875 8.4375 -0.484375 C 7.644531 -0.0546875 6.601562 0.15625 5.3125 0.15625 Z M 5.34375 -0.859375 C 7.226562 -0.859375 8.171875 -1.445312 8.171875 -2.625 L 8.171875 -7.484375 C 8.171875 -8.742188 7.222656 -9.375 5.328125 -9.375 C 4.421875 -9.375 3.722656 -9.234375 3.234375 -8.953125 C 2.742188 -8.671875 2.5 -8.179688 2.5 -7.484375 L 2.5 -2.625 C 2.5 -1.445312 3.445312 -0.859375 5.34375 -0.859375 Z M 5.34375 -0.859375 "/></g></g></g><g fill="#ffffff" fill-opacity="1"><g transform="translate(103.690466, 15.399259)"><g><path d="M 1.328125 -10.21875 L 2.84375 -10.21875 L 2.84375 -1.0625 L 7.875 -1.0625 L 7.875 0 L 1.328125 0 Z M 1.328125 -10.21875 "/></g></g></g><g fill="#ffffff" fill-opacity="1"><g transform="translate(112.653484, 15.399259)"><g><path d="M 5.296875 0.15625 C 4.742188 0.15625 4.257812 0.117188 3.84375 0.046875 C 3.425781 -0.0234375 3.019531 -0.148438 2.625 -0.328125 C 2.207031 -0.515625 1.882812 -0.800781 1.65625 -1.1875 C 1.4375 -1.582031 1.328125 -2.054688 1.328125 -2.609375 L 1.328125 -10.21875 L 2.78125 -10.21875 L 2.78125 -2.625 C 2.78125 -1.988281 2.992188 -1.535156 3.421875 -1.265625 C 3.859375 -0.992188 4.492188 -0.859375 5.328125 -0.859375 C 6.171875 -0.859375 6.796875 -0.992188 7.203125 -1.265625 C 7.617188 -1.535156 7.828125 -1.988281 7.828125 -2.625 L 7.828125 -10.21875 L 9.296875 -10.21875 L 9.296875 -2.609375 C 9.296875 -0.765625 7.960938 0.15625 5.296875 0.15625 Z M 5.296875 0.15625 "/></g></g></g><g fill="#ffffff" fill-opacity="1"><g transform="translate(124.069417, 15.399259)"><g><path d="M 3.84375 -9.140625 L 0.375 -9.140625 L 0.375 -10.21875 L 8.828125 -10.21875 L 8.828125 -9.140625 L 5.375 -9.140625 L 5.375 0 L 3.84375 0 Z M 3.84375 -9.140625 "/></g></g></g><g fill="#ffffff" fill-opacity="1"><g transform="translate(134.054482, 15.399259)"><g><path d="M 1.328125 -10.21875 L 2.84375 -10.21875 L 2.84375 0 L 1.328125 0 Z M 1.328125 -10.21875 "/></g></g></g><g fill="#ffffff" fill-opacity="1"><g transform="translate(139.007928, 15.399259)"><g><path d="M 5.3125 0.15625 C 2.457031 0.15625 1.03125 -0.765625 1.03125 -2.609375 L 1.03125 -7.4375 C 1.03125 -9.394531 2.457031 -10.375 5.3125 -10.375 C 8.195312 -10.375 9.640625 -9.398438 9.640625 -7.453125 L 9.640625 -2.609375 C 9.640625 -1.628906 9.238281 -0.921875 8.4375 -0.484375 C 7.644531 -0.0546875 6.601562 0.15625 5.3125 0.15625 Z M 5.34375 -0.859375 C 7.226562 -0.859375 8.171875 -1.445312 8.171875 -2.625 L 8.171875 -7.484375 C 8.171875 -8.742188 7.222656 -9.375 5.328125 -9.375 C 4.421875 -9.375 3.722656 -9.234375 3.234375 -8.953125 C 2.742188 -8.671875 2.5 -8.179688 2.5 -7.484375 L 2.5 -2.625 C 2.5 -1.445312 3.445312 -0.859375 5.34375 -0.859375 Z M 5.34375 -0.859375 "/></g></g></g><g fill="#ffffff" fill-opacity="1"><g transform="translate(150.471033, 15.399259)"><g><path d="M 1.328125 -10.21875 L 3.15625 -10.21875 L 8.71875 -1.78125 L 8.71875 -10.21875 L 10.046875 -10.21875 L 10.046875 0 L 8.21875 0 L 2.65625 -8.578125 L 2.65625 0 L 1.328125 0 Z M 1.328125 -10.21875 "/></g></g></g></g></g><g transform="matrix(1, 0, 0, 1, 132, -0.000000000000001479)"><g clip-path="url(#e1d5527678)"><g fill="#f27f20" fill-opacity="1"><g transform="translate(1.216405, 36.063155)"><g><path d="M 10.75 -28.84375 L 19.203125 -28.84375 L 29.59375 0 L 22.578125 0 L 20 -7.59375 L 9.46875 -7.59375 L 6.9375 0 L 0.09375 0 Z M 18.484375 -12.21875 L 14.84375 -23.0625 L 14.671875 -23.0625 L 11.015625 -12.21875 Z M 18.484375 -12.21875 "/></g></g></g></g></g><g fill="#263238" fill-opacity="1"><g transform="translate(2.655568, 51.60449)"><g><path d="M 4.96875 0.140625 C 2.300781 0.140625 0.96875 -0.71875 0.96875 -2.4375 L 0.96875 -6.96875 C 0.96875 -8.789062 2.300781 -9.703125 4.96875 -9.703125 C 7.664062 -9.703125 9.015625 -8.796875 9.015625 -6.984375 L 9.015625 -2.4375 C 9.015625 -1.519531 8.640625 -0.859375 7.890625 -0.453125 C 7.148438 -0.0546875 6.175781 0.140625 4.96875 0.140625 Z M 5 -0.8125 C 6.757812 -0.8125 7.640625 -1.359375 7.640625 -2.453125 L 7.640625 -7 C 7.640625 -8.175781 6.753906 -8.765625 4.984375 -8.765625 C 4.128906 -8.765625 3.472656 -8.632812 3.015625 -8.375 C 2.566406 -8.113281 2.34375 -7.65625 2.34375 -7 L 2.34375 -2.453125 C 2.34375 -1.359375 3.226562 -0.8125 5 -0.8125 Z M 5 -0.8125 "/></g></g></g><g fill="#263238" fill-opacity="1"><g transform="translate(13.385799, 51.60449)"><g><path d="M 1.234375 -9.546875 L 4.65625 -9.546875 C 5.46875 -9.546875 6.113281 -9.460938 6.59375 -9.296875 C 7.03125 -9.140625 7.328125 -8.941406 7.484375 -8.703125 C 7.640625 -8.472656 7.71875 -8.148438 7.71875 -7.734375 L 7.71875 -6.46875 C 7.71875 -6.082031 7.609375 -5.78125 7.390625 -5.5625 C 7.171875 -5.351562 6.84375 -5.203125 6.40625 -5.109375 L 6.40625 -5.046875 C 6.925781 -4.960938 7.34375 -4.785156 7.65625 -4.515625 C 7.976562 -4.242188 8.140625 -3.90625 8.140625 -3.5 L 8.140625 -1.90625 C 8.140625 -1.207031 7.878906 -0.710938 7.359375 -0.421875 C 6.835938 -0.140625 5.96875 0 4.75 0 L 1.234375 0 Z M 4.6875 -5.375 C 5.289062 -5.375 5.722656 -5.460938 5.984375 -5.640625 C 6.242188 -5.828125 6.375 -6.113281 6.375 -6.5 L 6.375 -7.625 C 6.375 -7.988281 6.238281 -8.242188 5.96875 -8.390625 C 5.707031 -8.535156 5.269531 -8.609375 4.65625 -8.609375 L 2.671875 -8.609375 L 2.671875 -5.375 Z M 4.75 -0.984375 C 5.46875 -0.984375 5.972656 -1.054688 6.265625 -1.203125 C 6.566406 -1.347656 6.71875 -1.597656 6.71875 -1.953125 L 6.71875 -3.40625 C 6.71875 -3.65625 6.664062 -3.851562 6.5625 -4 C 6.457031 -4.15625 6.296875 -4.269531 6.078125 -4.34375 C 5.859375 -4.40625 5.664062 -4.441406 5.5 -4.453125 C 5.332031 -4.460938 5.082031 -4.46875 4.75 -4.46875 L 2.671875 -4.46875 L 2.671875 -0.984375 Z M 4.75 -0.984375 "/></g></g></g><g fill="#263238" fill-opacity="1"><g transform="translate(23.144599, 51.60449)"><g><path d="M 1.234375 -9.546875 L 2.671875 -9.546875 L 2.671875 -1 L 7.359375 -1 L 7.359375 0 L 1.234375 0 Z M 1.234375 -9.546875 "/></g></g></g><g fill="#263238" fill-opacity="1"><g transform="translate(31.53456, 51.60449)"><g><path d="M 1.234375 -9.546875 L 2.671875 -9.546875 L 2.671875 0 L 1.234375 0 Z M 1.234375 -9.546875 "/></g></g></g><g fill="#263238" fill-opacity="1"><g transform="translate(36.171248, 51.60449)"><g><path d="M 4.953125 0 C 2.273438 0 0.9375 -0.863281 0.9375 -2.59375 L 0.9375 -6.96875 C 0.9375 -8.789062 2.273438 -9.703125 4.953125 -9.703125 C 7.648438 -9.703125 9 -8.796875 9 -6.984375 L 9 -3.03125 C 9 -2.125 8.5625 -1.382812 7.6875 -0.8125 L 10.03125 -0.8125 L 10.03125 0 Z M 4.984375 -0.953125 C 6.742188 -0.953125 7.625 -1.503906 7.625 -2.609375 L 7.625 -7 C 7.625 -8.175781 6.738281 -8.765625 4.96875 -8.765625 C 4.582031 -8.765625 4.242188 -8.742188 3.953125 -8.703125 C 3.671875 -8.660156 3.40625 -8.582031 3.15625 -8.46875 C 2.59375 -8.195312 2.3125 -7.707031 2.3125 -7 L 2.3125 -2.609375 C 2.3125 -1.503906 3.203125 -0.953125 4.984375 -0.953125 Z M 4.984375 -0.953125 "/></g></g></g><g fill="#263238" fill-opacity="1"><g transform="translate(46.857329, 51.60449)"><g><path d="M 4.015625 -9.546875 L 5.671875 -9.546875 L 9.375 0 L 7.890625 0 L 6.796875 -2.90625 L 2.703125 -2.90625 L 1.640625 0 L 0.21875 0 Z M 6.453125 -3.890625 L 4.828125 -8.203125 L 4.6875 -8.203125 L 3.078125 -3.890625 Z M 6.453125 -3.890625 "/></g></g></g><g fill="#263238" fill-opacity="1"><g transform="translate(57.190165, 51.60449)"><g/></g></g><g fill="#263238" fill-opacity="1"><g transform="translate(61.311697, 51.60449)"><g><path d="M 1.234375 -9.546875 L 2.671875 -9.546875 L 2.671875 0 L 1.234375 0 Z M 1.234375 -9.546875 "/></g></g></g><g fill="#263238" fill-opacity="1"><g transform="translate(65.948385, 51.60449)"><g><path d="M 3.59375 -8.546875 L 0.359375 -8.546875 L 0.359375 -9.546875 L 8.25 -9.546875 L 8.25 -8.546875 L 5.03125 -8.546875 L 5.03125 0 L 3.59375 0 Z M 3.59375 -8.546875 "/></g></g></g><g fill="#263238" fill-opacity="1"><g transform="translate(75.29506, 51.60449)"><g/></g></g><g fill="#263238" fill-opacity="1"><g transform="translate(79.416593, 51.60449)"><g><path d="M 3.984375 0.140625 C 3.171875 0.140625 2.203125 0.0625 1.078125 -0.09375 L 1.078125 -1.28125 C 2.210938 -1.03125 3.210938 -0.90625 4.078125 -0.90625 C 4.804688 -0.90625 5.335938 -0.984375 5.671875 -1.140625 C 6.003906 -1.304688 6.171875 -1.613281 6.171875 -2.0625 L 6.171875 -3.296875 C 6.171875 -3.710938 6.050781 -4.003906 5.8125 -4.171875 C 5.570312 -4.335938 5.160156 -4.421875 4.578125 -4.421875 L 3.453125 -4.421875 C 2.523438 -4.421875 1.863281 -4.601562 1.46875 -4.96875 C 1.082031 -5.34375 0.890625 -5.925781 0.890625 -6.71875 L 0.890625 -7.484375 C 0.890625 -7.992188 1.003906 -8.410156 1.234375 -8.734375 C 1.460938 -9.066406 1.847656 -9.3125 2.390625 -9.46875 C 2.929688 -9.625 3.679688 -9.703125 4.640625 -9.703125 C 5.273438 -9.703125 6.09375 -9.644531 7.09375 -9.53125 L 7.09375 -8.46875 C 5.976562 -8.632812 5.125 -8.71875 4.53125 -8.71875 C 3.625 -8.71875 3.019531 -8.628906 2.71875 -8.453125 C 2.414062 -8.265625 2.265625 -7.953125 2.265625 -7.515625 L 2.265625 -6.4375 C 2.265625 -6.101562 2.382812 -5.859375 2.625 -5.703125 C 2.863281 -5.546875 3.28125 -5.46875 3.875 -5.46875 L 5.015625 -5.46875 C 5.671875 -5.46875 6.179688 -5.390625 6.546875 -5.234375 C 6.921875 -5.078125 7.179688 -4.835938 7.328125 -4.515625 C 7.484375 -4.203125 7.5625 -3.773438 7.5625 -3.234375 L 7.5625 -2.546875 C 7.5625 -1.867188 7.4375 -1.332031 7.1875 -0.9375 C 6.9375 -0.550781 6.550781 -0.273438 6.03125 -0.109375 C 5.507812 0.0546875 4.828125 0.140625 3.984375 0.140625 Z M 3.984375 0.140625 "/></g></g></g><g fill="#263238" fill-opacity="1"><g transform="translate(88.527772, 51.60449)"><g><path d="M 4.96875 0.140625 C 2.300781 0.140625 0.96875 -0.71875 0.96875 -2.4375 L 0.96875 -6.96875 C 0.96875 -8.789062 2.300781 -9.703125 4.96875 -9.703125 C 7.664062 -9.703125 9.015625 -8.796875 9.015625 -6.984375 L 9.015625 -2.4375 C 9.015625 -1.519531 8.640625 -0.859375 7.890625 -0.453125 C 7.148438 -0.0546875 6.175781 0.140625 4.96875 0.140625 Z M 5 -0.8125 C 6.757812 -0.8125 7.640625 -1.359375 7.640625 -2.453125 L 7.640625 -7 C 7.640625 -8.175781 6.753906 -8.765625 4.984375 -8.765625 C 4.128906 -8.765625 3.472656 -8.632812 3.015625 -8.375 C 2.566406 -8.113281 2.34375 -7.65625 2.34375 -7 L 2.34375 -2.453125 C 2.34375 -1.359375 3.226562 -0.8125 5 -0.8125 Z M 5 -0.8125 "/></g></g></g><g fill="#263238" fill-opacity="1"><g transform="translate(99.258003, 51.60449)"><g><path d="M 1.234375 -9.546875 L 2.671875 -9.546875 L 2.671875 -1 L 7.359375 -1 L 7.359375 0 L 1.234375 0 Z M 1.234375 -9.546875 "/></g></g></g><g fill="#263238" fill-opacity="1"><g transform="translate(107.647964, 51.60449)"><g><path d="M 4.953125 0.140625 C 4.441406 0.140625 3.988281 0.101562 3.59375 0.03125 C 3.207031 -0.03125 2.828125 -0.144531 2.453125 -0.3125 C 2.066406 -0.488281 1.765625 -0.753906 1.546875 -1.109375 C 1.335938 -1.472656 1.234375 -1.914062 1.234375 -2.4375 L 1.234375 -9.546875 L 2.609375 -9.546875 L 2.609375 -2.453125 C 2.609375 -1.859375 2.804688 -1.4375 3.203125 -1.1875 C 3.609375 -0.9375 4.203125 -0.8125 4.984375 -0.8125 C 5.773438 -0.8125 6.363281 -0.9375 6.75 -1.1875 C 7.132812 -1.4375 7.328125 -1.859375 7.328125 -2.453125 L 7.328125 -9.546875 L 8.703125 -9.546875 L 8.703125 -2.4375 C 8.703125 -0.71875 7.453125 0.140625 4.953125 0.140625 Z M 4.953125 0.140625 "/></g></g></g><g fill="#263238" fill-opacity="1"><g transform="translate(118.334045, 51.60449)"><g><path d="M 3.59375 -8.546875 L 0.359375 -8.546875 L 0.359375 -9.546875 L 8.25 -9.546875 L 8.25 -8.546875 L 5.03125 -8.546875 L 5.03125 0 L 3.59375 0 Z M 3.59375 -8.546875 "/></g></g></g><g fill="#263238" fill-opacity="1"><g transform="translate(127.68072, 51.60449)"><g><path d="M 1.234375 -9.546875 L 2.671875 -9.546875 L 2.671875 0 L 1.234375 0 Z M 1.234375 -9.546875 "/></g></g></g><g fill="#263238" fill-opacity="1"><g transform="translate(132.317408, 51.60449)"><g><path d="M 4.96875 0.140625 C 2.300781 0.140625 0.96875 -0.71875 0.96875 -2.4375 L 0.96875 -6.96875 C 0.96875 -8.789062 2.300781 -9.703125 4.96875 -9.703125 C 7.664062 -9.703125 9.015625 -8.796875 9.015625 -6.984375 L 9.015625 -2.4375 C 9.015625 -1.519531 8.640625 -0.859375 7.890625 -0.453125 C 7.148438 -0.0546875 6.175781 0.140625 4.96875 0.140625 Z M 5 -0.8125 C 6.757812 -0.8125 7.640625 -1.359375 7.640625 -2.453125 L 7.640625 -7 C 7.640625 -8.175781 6.753906 -8.765625 4.984375 -8.765625 C 4.128906 -8.765625 3.472656 -8.632812 3.015625 -8.375 C 2.566406 -8.113281 2.34375 -7.65625 2.34375 -7 L 2.34375 -2.453125 C 2.34375 -1.359375 3.226562 -0.8125 5 -0.8125 Z M 5 -0.8125 "/></g></g></g><g fill="#263238" fill-opacity="1"><g transform="translate(143.04764, 51.60449)"><g><path d="M 1.234375 -9.546875 L 2.953125 -9.546875 L 8.15625 -1.65625 L 8.15625 -9.546875 L 9.40625 -9.546875 L 9.40625 0 L 7.6875 0 L 2.484375 -8.015625 L 2.484375 0 L 1.234375 0 Z M 1.234375 -9.546875 "/></g></g></g><g fill="#263238" fill-opacity="1"><g transform="translate(154.425504, 51.60449)"><g><path d="M 3.984375 0.140625 C 3.171875 0.140625 2.203125 0.0625 1.078125 -0.09375 L 1.078125 -1.28125 C 2.210938 -1.03125 3.210938 -0.90625 4.078125 -0.90625 C 4.804688 -0.90625 5.335938 -0.984375 5.671875 -1.140625 C 6.003906 -1.304688 6.171875 -1.613281 6.171875 -2.0625 L 6.171875 -3.296875 C 6.171875 -3.710938 6.050781 -4.003906 5.8125 -4.171875 C 5.570312 -4.335938 5.160156 -4.421875 4.578125 -4.421875 L 3.453125 -4.421875 C 2.523438 -4.421875 1.863281 -4.601562 1.46875 -4.96875 C 1.082031 -5.34375 0.890625 -5.925781 0.890625 -6.71875 L 0.890625 -7.484375 C 0.890625 -7.992188 1.003906 -8.410156 1.234375 -8.734375 C 1.460938 -9.066406 1.847656 -9.3125 2.390625 -9.46875 C 2.929688 -9.625 3.679688 -9.703125 4.640625 -9.703125 C 5.273438 -9.703125 6.09375 -9.644531 7.09375 -9.53125 L 7.09375 -8.46875 C 5.976562 -8.632812 5.125 -8.71875 4.53125 -8.71875 C 3.625 -8.71875 3.019531 -8.628906 2.71875 -8.453125 C 2.414062 -8.265625 2.265625 -7.953125 2.265625 -7.515625 L 2.265625 -6.4375 C 2.265625 -6.101562 2.382812 -5.859375 2.625 -5.703125 C 2.863281 -5.546875 3.28125 -5.46875 3.875 -5.46875 L 5.015625 -5.46875 C 5.671875 -5.46875 6.179688 -5.390625 6.546875 -5.234375 C 6.921875 -5.078125 7.179688 -4.835938 7.328125 -4.515625 C 7.484375 -4.203125 7.5625 -3.773438 7.5625 -3.234375 L 7.5625 -2.546875 C 7.5625 -1.867188 7.4375 -1.332031 7.1875 -0.9375 C 6.9375 -0.550781 6.550781 -0.273438 6.03125 -0.109375 C 5.507812 0.0546875 4.828125 0.140625 3.984375 0.140625 Z M 3.984375 0.140625 "/></g></g></g></svg>