<svg xmlns="http://www.w3.org/2000/svg" xmlns:xlink="http://www.w3.org/1999/xlink" width="220" zoomAndPan="magnify" viewBox="0 0 165 60" height="80" preserveAspectRatio="xMidYMid meet" version="1.0"><defs><g/><clipPath id="086a184f33"><rect x="0" width="33" y="0" height="49"/></clipPath><clipPath id="d79968dbee"><path d="M 25 34 L 40.601562 34 L 40.601562 36 L 25 36 Z M 25 34 " clip-rule="nonzero"/></clipPath><clipPath id="3e770a09e4"><path d="M 40 29 L 40.601562 29 L 40.601562 36 L 40 36 Z M 40 29 " clip-rule="nonzero"/></clipPath><clipPath id="3995634ffb"><path d="M 40 29 L 40.601562 29 L 40.601562 31 L 40 31 Z M 40 29 " clip-rule="nonzero"/></clipPath><clipPath id="041034e231"><path d="M 30 19 L 40.601562 19 L 40.601562 31 L 30 31 Z M 30 19 " clip-rule="nonzero"/></clipPath><clipPath id="a585d927c6"><path d="M 40 24 L 40.601562 24 L 40.601562 25 L 40 25 Z M 40 24 " clip-rule="nonzero"/></clipPath><clipPath id="a5b36d3d94"><path d="M 30 14 L 40.601562 14 L 40.601562 26 L 30 26 Z M 30 14 " clip-rule="nonzero"/></clipPath><clipPath id="65ff1534f7"><path d="M 40 14 L 40.601562 14 L 40.601562 15 L 40 15 Z M 40 14 " clip-rule="nonzero"/></clipPath><clipPath id="d31b642e5f"><path d="M 3.4375 18 L 6 18 L 6 21 L 3.4375 21 Z M 3.4375 18 " clip-rule="nonzero"/></clipPath><clipPath id="3e38ce5bd8"><path d="M 22 33 L 26 33 L 26 36.519531 L 22 36.519531 Z M 22 33 " clip-rule="nonzero"/></clipPath><clipPath id="11a87a66da"><path d="M 38 12.519531 L 40.601562 12.519531 L 40.601562 16 L 38 16 Z M 38 12.519531 " clip-rule="nonzero"/></clipPath><clipPath id="cada9c96e7"><rect x="0" width="102" y="0" height="49"/></clipPath><clipPath id="41ff1ba807"><rect x="0" width="32" y="0" height="49"/></clipPath></defs><g transform="matrix(1, 0, 0, 1, 0, -0.000000000000001479)"><g clip-path="url(#086a184f33)"><g fill="#f27f20" fill-opacity="1"><g transform="translate(-0.82461, 38.509948)"><g><path d="M 16.265625 0.453125 C 14.648438 0.453125 13.160156 0.347656 11.796875 0.140625 C 10.441406 -0.0664062 9.035156 -0.425781 7.578125 -0.9375 C 5.992188 -1.476562 4.753906 -2.351562 3.859375 -3.5625 C 2.960938 -4.769531 2.515625 -6.238281 2.515625 -7.96875 L 2.515625 -20.703125 C 2.515625 -22.128906 2.832031 -23.410156 3.46875 -24.546875 C 4.113281 -25.679688 4.941406 -26.578125 5.953125 -27.234375 C 6.847656 -27.804688 7.953125 -28.285156 9.265625 -28.671875 C 10.585938 -29.054688 11.816406 -29.296875 12.953125 -29.390625 C 13.992188 -29.472656 15.097656 -29.515625 16.265625 -29.515625 C 17.640625 -29.515625 18.832031 -29.460938 19.84375 -29.359375 C 20.863281 -29.253906 22 -29.039062 23.25 -28.71875 C 24.6875 -28.300781 25.863281 -27.789062 26.78125 -27.1875 C 27.707031 -26.59375 28.488281 -25.757812 29.125 -24.6875 C 29.78125 -23.582031 30.109375 -22.253906 30.109375 -20.703125 L 30.109375 -7.96875 C 30.109375 -6.363281 29.679688 -4.976562 28.828125 -3.8125 C 27.972656 -2.644531 26.800781 -1.765625 25.3125 -1.171875 C 22.625 -0.0859375 19.609375 0.453125 16.265625 0.453125 Z M 16.34375 -4.53125 C 17.332031 -4.53125 18.160156 -4.566406 18.828125 -4.640625 C 19.503906 -4.710938 20.203125 -4.851562 20.921875 -5.0625 C 21.640625 -5.269531 22.179688 -5.617188 22.546875 -6.109375 C 22.921875 -6.609375 23.109375 -7.226562 23.109375 -7.96875 L 23.109375 -20.734375 C 23.109375 -22.109375 22.554688 -23.085938 21.453125 -23.671875 C 20.347656 -24.253906 18.632812 -24.546875 16.3125 -24.546875 C 13.976562 -24.546875 12.257812 -24.257812 11.15625 -23.6875 C 10.050781 -23.125 9.5 -22.140625 9.5 -20.734375 L 9.5 -7.96875 C 9.5 -7.226562 9.691406 -6.609375 10.078125 -6.109375 C 10.460938 -5.617188 11.03125 -5.269531 11.78125 -5.0625 C 12.5 -4.851562 13.191406 -4.710938 13.859375 -4.640625 C 14.535156 -4.566406 15.363281 -4.53125 16.34375 -4.53125 Z M 16.34375 -4.53125 "/></g></g></g></g></g><g clip-path="url(#d79968dbee)"><path fill="#263238" d="M 25.273438 34.9375 L 40.921875 34.9375 C 41.0625 34.9375 41.171875 35.046875 41.171875 35.1875 C 41.171875 35.324219 41.0625 35.4375 40.921875 35.4375 L 25.273438 35.4375 C 25.132812 35.4375 25.023438 35.324219 25.023438 35.1875 C 25.023438 35.046875 25.132812 34.9375 25.273438 34.9375 Z M 25.273438 34.9375 " fill-opacity="1" fill-rule="nonzero"/></g><g clip-path="url(#3e770a09e4)"><path fill="#263238" d="M 40.746094 35.011719 L 45.964844 29.792969 C 46.0625 29.695312 46.21875 29.695312 46.316406 29.792969 C 46.414062 29.890625 46.414062 30.046875 46.316406 30.144531 L 41.101562 35.363281 C 41.003906 35.460938 40.84375 35.460938 40.746094 35.363281 C 40.648438 35.265625 40.648438 35.105469 40.746094 35.011719 Z M 40.746094 35.011719 " fill-opacity="1" fill-rule="nonzero"/></g><g clip-path="url(#3995634ffb)"><path fill="#263238" d="M 77.441406 30.21875 L 40.921875 30.21875 C 40.785156 30.21875 40.675781 30.105469 40.675781 29.96875 C 40.675781 29.832031 40.785156 29.71875 40.921875 29.71875 L 77.441406 29.71875 C 77.582031 29.71875 77.691406 29.832031 77.691406 29.96875 C 77.691406 30.105469 77.582031 30.21875 77.441406 30.21875 Z M 77.441406 30.21875 " fill-opacity="1" fill-rule="nonzero"/></g><g clip-path="url(#041034e231)"><path fill="#263238" d="M 40.746094 30.144531 L 30.3125 19.710938 C 30.214844 19.613281 30.214844 19.457031 30.3125 19.359375 C 30.410156 19.261719 30.566406 19.261719 30.664062 19.359375 L 41.101562 29.792969 C 41.195312 29.890625 41.195312 30.046875 41.101562 30.144531 C 41.003906 30.242188 40.84375 30.242188 40.746094 30.144531 Z M 40.746094 30.144531 " fill-opacity="1" fill-rule="nonzero"/></g><path fill="#263238" d="M 30.488281 19.785156 L 20.054688 19.785156 C 19.917969 19.785156 19.804688 19.671875 19.804688 19.535156 C 19.804688 19.398438 19.917969 19.285156 20.054688 19.285156 L 30.488281 19.285156 C 30.628906 19.285156 30.738281 19.398438 30.738281 19.535156 C 30.738281 19.671875 30.628906 19.785156 30.488281 19.785156 Z M 30.488281 19.785156 " fill-opacity="1" fill-rule="nonzero"/><path fill="#263238" d="M 35.882812 24.929688 L 30.664062 30.144531 C 30.566406 30.242188 30.410156 30.242188 30.3125 30.144531 C 30.214844 30.046875 30.214844 29.890625 30.3125 29.792969 L 35.53125 24.574219 C 35.628906 24.476562 35.785156 24.476562 35.882812 24.574219 C 35.980469 24.671875 35.980469 24.832031 35.882812 24.929688 Z M 35.882812 24.929688 " fill-opacity="1" fill-rule="nonzero"/><path fill="#263238" d="M 30.488281 30.21875 L 14.839844 30.21875 C 14.699219 30.21875 14.589844 30.105469 14.589844 29.96875 C 14.589844 29.832031 14.699219 29.71875 14.839844 29.71875 L 30.488281 29.71875 C 30.628906 29.71875 30.738281 29.832031 30.738281 29.96875 C 30.738281 30.105469 30.628906 30.21875 30.488281 30.21875 Z M 30.488281 30.21875 " fill-opacity="1" fill-rule="nonzero"/><g clip-path="url(#a585d927c6)"><path fill="#263238" d="M 77.441406 25 L 40.921875 25 C 40.785156 25 40.675781 24.890625 40.675781 24.753906 C 40.675781 24.613281 40.785156 24.503906 40.921875 24.503906 L 77.441406 24.503906 C 77.582031 24.503906 77.691406 24.613281 77.691406 24.753906 C 77.691406 24.890625 77.582031 25 77.441406 25 Z M 77.441406 25 " fill-opacity="1" fill-rule="nonzero"/></g><g clip-path="url(#a5b36d3d94)"><path fill="#263238" d="M 40.746094 24.929688 L 30.3125 14.496094 C 30.214844 14.398438 30.214844 14.238281 30.3125 14.140625 C 30.410156 14.042969 30.566406 14.042969 30.664062 14.140625 L 41.101562 24.574219 C 41.195312 24.671875 41.195312 24.832031 41.101562 24.929688 C 41.003906 25.027344 40.84375 25.027344 40.746094 24.929688 Z M 40.746094 24.929688 " fill-opacity="1" fill-rule="nonzero"/></g><path fill="#263238" d="M 30.488281 14.566406 L 9.621094 14.566406 C 9.484375 14.566406 9.371094 14.457031 9.371094 14.316406 C 9.371094 14.179688 9.484375 14.070312 9.621094 14.070312 L 30.488281 14.070312 C 30.628906 14.070312 30.738281 14.179688 30.738281 14.316406 C 30.738281 14.457031 30.628906 14.566406 30.488281 14.566406 Z M 30.488281 14.566406 " fill-opacity="1" fill-rule="nonzero"/><path fill="#263238" d="M 20.230469 14.496094 L 15.015625 19.710938 C 14.917969 19.808594 14.757812 19.808594 14.660156 19.710938 C 14.5625 19.613281 14.5625 19.457031 14.660156 19.359375 L 19.878906 14.140625 C 19.976562 14.042969 20.132812 14.042969 20.230469 14.140625 C 20.328125 14.238281 20.328125 14.398438 20.230469 14.496094 Z M 20.230469 14.496094 " fill-opacity="1" fill-rule="nonzero"/><path fill="#263238" d="M 14.839844 19.785156 L 4.402344 19.785156 C 4.265625 19.785156 4.15625 19.671875 4.15625 19.535156 C 4.15625 19.398438 4.265625 19.285156 4.402344 19.285156 L 14.839844 19.285156 C 14.976562 19.285156 15.085938 19.398438 15.085938 19.535156 C 15.085938 19.671875 14.976562 19.785156 14.839844 19.785156 Z M 14.839844 19.785156 " fill-opacity="1" fill-rule="nonzero"/><g clip-path="url(#65ff1534f7)"><path fill="#263238" d="M 51.359375 14.566406 L 40.921875 14.566406 C 40.785156 14.566406 40.675781 14.457031 40.675781 14.316406 C 40.675781 14.179688 40.785156 14.070312 40.921875 14.070312 L 51.359375 14.070312 C 51.496094 14.070312 51.605469 14.179688 51.605469 14.316406 C 51.605469 14.457031 51.496094 14.566406 51.359375 14.566406 Z M 51.359375 14.566406 " fill-opacity="1" fill-rule="nonzero"/></g><path fill="#263238" d="M 13.613281 29.894531 C 13.65625 29.21875 14.238281 28.703125 14.914062 28.746094 C 15.589844 28.785156 16.101562 29.367188 16.0625 30.042969 C 16.019531 30.71875 15.4375 31.234375 14.761719 31.191406 C 14.085938 31.152344 13.574219 30.570312 13.613281 29.894531 Z M 13.613281 29.894531 " fill-opacity="1" fill-rule="nonzero"/><path fill="#263238" d="M 18.832031 19.460938 C 18.875 18.785156 19.453125 18.269531 20.128906 18.3125 C 20.804688 18.351562 21.320312 18.933594 21.277344 19.609375 C 21.238281 20.285156 20.65625 20.800781 19.980469 20.757812 C 19.304688 20.71875 18.789062 20.136719 18.832031 19.460938 Z M 18.832031 19.460938 " fill-opacity="1" fill-rule="nonzero"/><path fill="#263238" d="M 8.398438 14.242188 C 8.4375 13.566406 9.019531 13.054688 9.695312 13.09375 C 10.371094 13.136719 10.886719 13.71875 10.84375 14.394531 C 10.804688 15.070312 10.222656 15.582031 9.546875 15.542969 C 8.871094 15.5 8.355469 14.917969 8.398438 14.242188 Z M 8.398438 14.242188 " fill-opacity="1" fill-rule="nonzero"/><g clip-path="url(#d31b642e5f)"><path fill="#263238" d="M 3.179688 19.460938 C 3.222656 18.785156 3.804688 18.269531 4.480469 18.3125 C 5.15625 18.351562 5.667969 18.933594 5.628906 19.609375 C 5.585938 20.285156 5.003906 20.800781 4.328125 20.757812 C 3.652344 20.71875 3.140625 20.136719 3.179688 19.460938 Z M 3.179688 19.460938 " fill-opacity="1" fill-rule="nonzero"/></g><g clip-path="url(#3e38ce5bd8)"><path fill="#263238" d="M 22.644531 35.03125 C 22.695312 34.300781 23.328125 33.753906 24.054688 33.804688 C 24.785156 33.855469 25.332031 34.488281 25.28125 35.214844 C 25.230469 35.945312 24.597656 36.492188 23.867188 36.441406 C 23.140625 36.390625 22.589844 35.757812 22.644531 35.03125 M 23.167969 35.066406 C 23.136719 35.503906 23.46875 35.886719 23.90625 35.917969 C 24.34375 35.949219 24.726562 35.617188 24.757812 35.179688 C 24.785156 34.742188 24.457031 34.359375 24.019531 34.328125 C 23.578125 34.296875 23.199219 34.628906 23.167969 35.066406 Z M 23.167969 35.066406 " fill-opacity="1" fill-rule="nonzero"/></g><g clip-path="url(#11a87a66da)"><path fill="#263238" d="M 38.34375 14.160156 C 38.394531 13.429688 39.027344 12.882812 39.753906 12.933594 C 40.484375 12.984375 41.03125 13.617188 40.980469 14.347656 C 40.929688 15.074219 40.296875 15.621094 39.566406 15.570312 C 38.839844 15.519531 38.289062 14.886719 38.34375 14.160156 M 38.867188 14.195312 C 38.835938 14.632812 39.167969 15.015625 39.605469 15.046875 C 40.042969 15.078125 40.425781 14.746094 40.457031 14.308594 C 40.484375 13.871094 40.15625 13.488281 39.71875 13.457031 C 39.277344 13.425781 38.898438 13.757812 38.867188 14.195312 Z M 38.867188 14.195312 " fill-opacity="1" fill-rule="nonzero"/></g><g transform="matrix(1, 0, 0, 1, 30, -0.000000000000001479)"><g clip-path="url(#cada9c96e7)"><g fill="#f27f20" fill-opacity="1"><g transform="translate(0.786429, 38.785434)"><g><path d="M 3.140625 -29.046875 L 14.90625 -29.046875 C 17.675781 -29.046875 19.816406 -28.84375 21.328125 -28.4375 C 22.835938 -28.039062 23.90625 -27.398438 24.53125 -26.515625 C 25.15625 -25.640625 25.46875 -24.410156 25.46875 -22.828125 L 25.46875 -19.25 C 25.46875 -18.445312 25.144531 -17.6875 24.5 -16.96875 C 23.863281 -16.25 23.113281 -15.753906 22.25 -15.484375 L 22.25 -15.265625 C 23.382812 -15.148438 24.421875 -14.664062 25.359375 -13.8125 C 26.296875 -12.957031 26.765625 -12.007812 26.765625 -10.96875 L 26.765625 -6.484375 C 26.765625 -4.128906 25.820312 -2.457031 23.9375 -1.46875 C 22.0625 -0.488281 19.15625 0 15.21875 0 L 3.140625 0 Z M 14.90625 -17.234375 C 16.007812 -17.234375 16.828125 -17.320312 17.359375 -17.5 C 17.898438 -17.675781 18.265625 -17.96875 18.453125 -18.375 C 18.648438 -18.78125 18.75 -19.367188 18.75 -20.140625 L 18.75 -21.578125 C 18.75 -22.265625 18.660156 -22.78125 18.484375 -23.125 C 18.304688 -23.46875 17.941406 -23.710938 17.390625 -23.859375 C 16.835938 -24.003906 15.960938 -24.078125 14.765625 -24.078125 L 10.109375 -24.078125 L 10.109375 -17.234375 Z M 15.09375 -4.96875 C 16.789062 -4.96875 17.992188 -5.160156 18.703125 -5.546875 C 19.421875 -5.941406 19.78125 -6.570312 19.78125 -7.4375 L 19.78125 -9.765625 C 19.78125 -10.835938 19.503906 -11.597656 18.953125 -12.046875 C 18.398438 -12.492188 17.425781 -12.71875 16.03125 -12.71875 L 10.109375 -12.71875 L 10.109375 -4.96875 Z M 15.09375 -4.96875 "/></g></g></g><g fill="#f27f20" fill-opacity="1"><g transform="translate(29.216158, 38.785434)"><g><path d="M 3.140625 -29.046875 L 10.109375 -29.046875 L 10.109375 -4.96875 L 24.390625 -4.96875 L 24.390625 0 L 3.140625 0 Z M 3.140625 -29.046875 "/></g></g></g><g fill="#f27f20" fill-opacity="1"><g transform="translate(55.183466, 38.785434)"><g><path d="M 3.140625 -29.046875 L 10.109375 -29.046875 L 10.109375 0 L 3.140625 0 Z M 3.140625 -29.046875 "/></g></g></g><g fill="#f27f20" fill-opacity="1"><g transform="translate(68.43575, 38.785434)"><g><path d="M 16.25 0.453125 C 14.632812 0.453125 13.148438 0.347656 11.796875 0.140625 C 10.441406 -0.0664062 9.03125 -0.425781 7.5625 -0.9375 C 5.976562 -1.476562 4.738281 -2.351562 3.84375 -3.5625 C 2.945312 -4.769531 2.5 -6.238281 2.5 -7.96875 L 2.5 -20.6875 C 2.5 -22.113281 2.820312 -23.394531 3.46875 -24.53125 C 4.113281 -25.664062 4.941406 -26.5625 5.953125 -27.21875 C 6.847656 -27.78125 7.953125 -28.253906 9.265625 -28.640625 C 10.578125 -29.035156 11.800781 -29.273438 12.9375 -29.359375 C 13.976562 -29.453125 15.082031 -29.5 16.25 -29.5 C 17.625 -29.5 18.816406 -29.445312 19.828125 -29.34375 C 20.847656 -29.238281 21.984375 -29.019531 23.234375 -28.6875 C 24.660156 -28.269531 25.835938 -27.765625 26.765625 -27.171875 C 27.691406 -26.578125 28.46875 -25.742188 29.09375 -24.671875 C 29.75 -23.566406 30.078125 -22.238281 30.078125 -20.6875 L 30.078125 -12.765625 C 30.078125 -8.347656 28.851562 -5.765625 26.40625 -5.015625 L 32.765625 -5.015625 L 32.765625 0 L 23.234375 0 C 22.898438 0 21.882812 0.0703125 20.1875 0.21875 C 18.488281 0.375 17.175781 0.453125 16.25 0.453125 Z M 16.34375 -4.515625 C 17.320312 -4.515625 18.144531 -4.550781 18.8125 -4.625 C 19.488281 -4.707031 20.1875 -4.851562 20.90625 -5.0625 C 21.625 -5.269531 22.164062 -5.617188 22.53125 -6.109375 C 22.90625 -6.597656 23.09375 -7.21875 23.09375 -7.96875 L 23.09375 -20.71875 C 23.09375 -22.09375 22.539062 -23.070312 21.4375 -23.65625 C 20.332031 -24.238281 18.617188 -24.53125 16.296875 -24.53125 C 13.960938 -24.53125 12.242188 -24.242188 11.140625 -23.671875 C 10.035156 -23.109375 9.484375 -22.125 9.484375 -20.71875 L 9.484375 -7.96875 C 9.484375 -7.21875 9.675781 -6.597656 10.0625 -6.109375 C 10.457031 -5.617188 11.023438 -5.269531 11.765625 -5.0625 C 12.484375 -4.851562 13.175781 -4.707031 13.84375 -4.625 C 14.519531 -4.550781 15.351562 -4.515625 16.34375 -4.515625 Z M 16.34375 -4.515625 "/></g></g></g></g></g><g transform="matrix(1, 0, 0, 1, 133, -0.000000000000001479)"><g clip-path="url(#41ff1ba807)"><g fill="#f27f20" fill-opacity="1"><g transform="translate(0.946474, 38.46281)"><g><path d="M 10.84375 -29.078125 L 19.359375 -29.078125 L 29.828125 0 L 22.75 0 L 20.15625 -7.65625 L 9.546875 -7.65625 L 6.984375 0 L 0.09375 0 Z M 18.640625 -12.3125 L 14.96875 -23.25 L 14.78125 -23.25 L 11.109375 -12.3125 Z M 18.640625 -12.3125 "/></g></g></g></g></g><g fill="#ffffff" fill-opacity="1"><g transform="translate(2.735605, 54.516394)"><g><path d="M 5.015625 0.140625 C 2.328125 0.140625 0.984375 -0.726562 0.984375 -2.46875 L 0.984375 -7.015625 C 0.984375 -8.859375 2.328125 -9.78125 5.015625 -9.78125 C 7.734375 -9.78125 9.09375 -8.863281 9.09375 -7.03125 L 9.09375 -2.46875 C 9.09375 -1.53125 8.71875 -0.859375 7.96875 -0.453125 C 7.21875 -0.0546875 6.234375 0.140625 5.015625 0.140625 Z M 5.046875 -0.8125 C 6.816406 -0.8125 7.703125 -1.367188 7.703125 -2.484375 L 7.703125 -7.0625 C 7.703125 -8.25 6.8125 -8.84375 5.03125 -8.84375 C 4.164062 -8.84375 3.503906 -8.707031 3.046875 -8.4375 C 2.585938 -8.175781 2.359375 -7.71875 2.359375 -7.0625 L 2.359375 -2.484375 C 2.359375 -1.367188 3.253906 -0.8125 5.046875 -0.8125 Z M 5.046875 -0.8125 "/></g></g></g><g fill="#ffffff" fill-opacity="1"><g transform="translate(13.551679, 54.516394)"><g><path d="M 1.25 -9.640625 L 4.6875 -9.640625 C 5.507812 -9.640625 6.164062 -9.550781 6.65625 -9.375 C 7.09375 -9.21875 7.390625 -9.019531 7.546875 -8.78125 C 7.703125 -8.550781 7.78125 -8.226562 7.78125 -7.8125 L 7.78125 -6.515625 C 7.78125 -6.128906 7.671875 -5.828125 7.453125 -5.609375 C 7.234375 -5.398438 6.898438 -5.25 6.453125 -5.15625 L 6.453125 -5.09375 C 6.984375 -5 7.40625 -4.816406 7.71875 -4.546875 C 8.039062 -4.273438 8.203125 -3.9375 8.203125 -3.53125 L 8.203125 -1.921875 C 8.203125 -1.210938 7.941406 -0.710938 7.421875 -0.421875 C 6.898438 -0.140625 6.023438 0 4.796875 0 L 1.25 0 Z M 4.734375 -5.421875 C 5.335938 -5.421875 5.769531 -5.507812 6.03125 -5.6875 C 6.289062 -5.875 6.421875 -6.164062 6.421875 -6.5625 L 6.421875 -7.6875 C 6.421875 -8.050781 6.285156 -8.304688 6.015625 -8.453125 C 5.753906 -8.609375 5.3125 -8.6875 4.6875 -8.6875 L 2.6875 -8.6875 L 2.6875 -5.421875 Z M 4.796875 -1 C 5.515625 -1 6.023438 -1.070312 6.328125 -1.21875 C 6.617188 -1.363281 6.765625 -1.613281 6.765625 -1.96875 L 6.765625 -3.421875 C 6.765625 -3.679688 6.710938 -3.890625 6.609375 -4.046875 C 6.503906 -4.203125 6.34375 -4.3125 6.125 -4.375 C 5.90625 -4.4375 5.710938 -4.472656 5.546875 -4.484375 C 5.378906 -4.503906 5.128906 -4.515625 4.796875 -4.515625 L 2.6875 -4.515625 L 2.6875 -1 Z M 4.796875 -1 "/></g></g></g><g fill="#ffffff" fill-opacity="1"><g transform="translate(23.388573, 54.516394)"><g><path d="M 1.25 -9.640625 L 2.6875 -9.640625 L 2.6875 -1.015625 L 7.421875 -1.015625 L 7.421875 0 L 1.25 0 Z M 1.25 -9.640625 "/></g></g></g><g fill="#ffffff" fill-opacity="1"><g transform="translate(31.845722, 54.516394)"><g><path d="M 1.25 -9.640625 L 2.6875 -9.640625 L 2.6875 0 L 1.25 0 Z M 1.25 -9.640625 "/></g></g></g><g fill="#ffffff" fill-opacity="1"><g transform="translate(36.519695, 54.516394)"><g><path d="M 5 0 C 2.300781 0 0.953125 -0.867188 0.953125 -2.609375 L 0.953125 -7.015625 C 0.953125 -8.859375 2.300781 -9.78125 5 -9.78125 C 7.707031 -9.78125 9.0625 -8.863281 9.0625 -7.03125 L 9.0625 -3.0625 C 9.0625 -2.144531 8.625 -1.394531 7.75 -0.8125 L 10.125 -0.8125 L 10.125 0 Z M 5.03125 -0.96875 C 6.800781 -0.96875 7.6875 -1.519531 7.6875 -2.625 L 7.6875 -7.0625 C 7.6875 -8.25 6.796875 -8.84375 5.015625 -8.84375 C 4.617188 -8.84375 4.273438 -8.820312 3.984375 -8.78125 C 3.703125 -8.738281 3.429688 -8.65625 3.171875 -8.53125 C 2.609375 -8.269531 2.328125 -7.78125 2.328125 -7.0625 L 2.328125 -2.625 C 2.328125 -1.519531 3.226562 -0.96875 5.03125 -0.96875 Z M 5.03125 -0.96875 "/></g></g></g><g fill="#ffffff" fill-opacity="1"><g transform="translate(47.291263, 54.516394)"><g><path d="M 4.046875 -9.640625 L 5.71875 -9.640625 L 9.453125 0 L 7.953125 0 L 6.859375 -2.921875 L 2.734375 -2.921875 L 1.640625 0 L 0.21875 0 Z M 6.5 -3.921875 L 4.875 -8.265625 L 4.734375 -8.265625 L 3.109375 -3.921875 Z M 6.5 -3.921875 "/></g></g></g><g fill="#ffffff" fill-opacity="1"><g transform="translate(57.706771, 54.516394)"><g/></g></g><g fill="#ffffff" fill-opacity="1"><g transform="translate(61.86148, 54.516394)"><g><path d="M 1.25 -9.640625 L 2.6875 -9.640625 L 2.6875 0 L 1.25 0 Z M 1.25 -9.640625 "/></g></g></g><g fill="#ffffff" fill-opacity="1"><g transform="translate(66.535453, 54.516394)"><g><path d="M 3.625 -8.625 L 0.359375 -8.625 L 0.359375 -9.640625 L 8.328125 -9.640625 L 8.328125 -8.625 L 5.078125 -8.625 L 5.078125 0 L 3.625 0 Z M 3.625 -8.625 "/></g></g></g><g fill="#ffffff" fill-opacity="1"><g transform="translate(75.95695, 54.516394)"><g/></g></g><g fill="#ffffff" fill-opacity="1"><g transform="translate(80.111658, 54.516394)"><g><path d="M 4.015625 0.140625 C 3.203125 0.140625 2.222656 0.0625 1.078125 -0.09375 L 1.078125 -1.296875 C 2.234375 -1.046875 3.242188 -0.921875 4.109375 -0.921875 C 4.835938 -0.921875 5.367188 -1 5.703125 -1.15625 C 6.046875 -1.320312 6.21875 -1.628906 6.21875 -2.078125 L 6.21875 -3.328125 C 6.21875 -3.742188 6.097656 -4.035156 5.859375 -4.203125 C 5.617188 -4.367188 5.203125 -4.453125 4.609375 -4.453125 L 3.484375 -4.453125 C 2.546875 -4.453125 1.878906 -4.640625 1.484375 -5.015625 C 1.085938 -5.390625 0.890625 -5.972656 0.890625 -6.765625 L 0.890625 -7.546875 C 0.890625 -8.066406 1.003906 -8.488281 1.234375 -8.8125 C 1.472656 -9.144531 1.863281 -9.390625 2.40625 -9.546875 C 2.957031 -9.703125 3.710938 -9.78125 4.671875 -9.78125 C 5.316406 -9.78125 6.144531 -9.726562 7.15625 -9.625 L 7.15625 -8.53125 C 6.03125 -8.695312 5.171875 -8.78125 4.578125 -8.78125 C 3.648438 -8.78125 3.039062 -8.691406 2.75 -8.515625 C 2.4375 -8.328125 2.28125 -8.015625 2.28125 -7.578125 L 2.28125 -6.484375 C 2.28125 -6.148438 2.398438 -5.90625 2.640625 -5.75 C 2.890625 -5.59375 3.3125 -5.515625 3.90625 -5.515625 L 5.0625 -5.515625 C 5.726562 -5.515625 6.242188 -5.4375 6.609375 -5.28125 C 6.984375 -5.125 7.242188 -4.882812 7.390625 -4.5625 C 7.546875 -4.238281 7.625 -3.804688 7.625 -3.265625 L 7.625 -2.5625 C 7.625 -1.882812 7.5 -1.347656 7.25 -0.953125 C 7 -0.554688 6.609375 -0.273438 6.078125 -0.109375 C 5.554688 0.0546875 4.867188 0.140625 4.015625 0.140625 Z M 4.015625 0.140625 "/></g></g></g><g fill="#ffffff" fill-opacity="1"><g transform="translate(89.29577, 54.516394)"><g><path d="M 5.015625 0.140625 C 2.328125 0.140625 0.984375 -0.726562 0.984375 -2.46875 L 0.984375 -7.015625 C 0.984375 -8.859375 2.328125 -9.78125 5.015625 -9.78125 C 7.734375 -9.78125 9.09375 -8.863281 9.09375 -7.03125 L 9.09375 -2.46875 C 9.09375 -1.53125 8.71875 -0.859375 7.96875 -0.453125 C 7.21875 -0.0546875 6.234375 0.140625 5.015625 0.140625 Z M 5.046875 -0.8125 C 6.816406 -0.8125 7.703125 -1.367188 7.703125 -2.484375 L 7.703125 -7.0625 C 7.703125 -8.25 6.8125 -8.84375 5.03125 -8.84375 C 4.164062 -8.84375 3.503906 -8.707031 3.046875 -8.4375 C 2.585938 -8.175781 2.359375 -7.71875 2.359375 -7.0625 L 2.359375 -2.484375 C 2.359375 -1.367188 3.253906 -0.8125 5.046875 -0.8125 Z M 5.046875 -0.8125 "/></g></g></g><g fill="#ffffff" fill-opacity="1"><g transform="translate(100.111844, 54.516394)"><g><path d="M 1.25 -9.640625 L 2.6875 -9.640625 L 2.6875 -1.015625 L 7.421875 -1.015625 L 7.421875 0 L 1.25 0 Z M 1.25 -9.640625 "/></g></g></g><g fill="#ffffff" fill-opacity="1"><g transform="translate(108.568994, 54.516394)"><g><path d="M 5 0.140625 C 4.476562 0.140625 4.019531 0.101562 3.625 0.03125 C 3.238281 -0.03125 2.859375 -0.144531 2.484375 -0.3125 C 2.085938 -0.488281 1.78125 -0.757812 1.5625 -1.125 C 1.351562 -1.488281 1.25 -1.9375 1.25 -2.46875 L 1.25 -9.640625 L 2.625 -9.640625 L 2.625 -2.484375 C 2.625 -1.878906 2.828125 -1.445312 3.234375 -1.1875 C 3.640625 -0.9375 4.238281 -0.8125 5.03125 -0.8125 C 5.820312 -0.8125 6.410156 -0.9375 6.796875 -1.1875 C 7.191406 -1.445312 7.390625 -1.878906 7.390625 -2.484375 L 7.390625 -9.640625 L 8.765625 -9.640625 L 8.765625 -2.46875 C 8.765625 -0.726562 7.507812 0.140625 5 0.140625 Z M 5 0.140625 "/></g></g></g><g fill="#ffffff" fill-opacity="1"><g transform="translate(119.340561, 54.516394)"><g><path d="M 3.625 -8.625 L 0.359375 -8.625 L 0.359375 -9.640625 L 8.328125 -9.640625 L 8.328125 -8.625 L 5.078125 -8.625 L 5.078125 0 L 3.625 0 Z M 3.625 -8.625 "/></g></g></g><g fill="#ffffff" fill-opacity="1"><g transform="translate(128.762058, 54.516394)"><g><path d="M 1.25 -9.640625 L 2.6875 -9.640625 L 2.6875 0 L 1.25 0 Z M 1.25 -9.640625 "/></g></g></g><g fill="#ffffff" fill-opacity="1"><g transform="translate(133.436031, 54.516394)"><g><path d="M 5.015625 0.140625 C 2.328125 0.140625 0.984375 -0.726562 0.984375 -2.46875 L 0.984375 -7.015625 C 0.984375 -8.859375 2.328125 -9.78125 5.015625 -9.78125 C 7.734375 -9.78125 9.09375 -8.863281 9.09375 -7.03125 L 9.09375 -2.46875 C 9.09375 -1.53125 8.71875 -0.859375 7.96875 -0.453125 C 7.21875 -0.0546875 6.234375 0.140625 5.015625 0.140625 Z M 5.046875 -0.8125 C 6.816406 -0.8125 7.703125 -1.367188 7.703125 -2.484375 L 7.703125 -7.0625 C 7.703125 -8.25 6.8125 -8.84375 5.03125 -8.84375 C 4.164062 -8.84375 3.503906 -8.707031 3.046875 -8.4375 C 2.585938 -8.175781 2.359375 -7.71875 2.359375 -7.0625 L 2.359375 -2.484375 C 2.359375 -1.367188 3.253906 -0.8125 5.046875 -0.8125 Z M 5.046875 -0.8125 "/></g></g></g><g fill="#ffffff" fill-opacity="1"><g transform="translate(144.252105, 54.516394)"><g><path d="M 1.25 -9.640625 L 2.984375 -9.640625 L 8.21875 -1.671875 L 8.21875 -9.640625 L 9.484375 -9.640625 L 9.484375 0 L 7.75 0 L 2.515625 -8.09375 L 2.515625 0 L 1.25 0 Z M 1.25 -9.640625 "/></g></g></g><g fill="#ffffff" fill-opacity="1"><g transform="translate(155.720962, 54.516394)"><g><path d="M 4.015625 0.140625 C 3.203125 0.140625 2.222656 0.0625 1.078125 -0.09375 L 1.078125 -1.296875 C 2.234375 -1.046875 3.242188 -0.921875 4.109375 -0.921875 C 4.835938 -0.921875 5.367188 -1 5.703125 -1.15625 C 6.046875 -1.320312 6.21875 -1.628906 6.21875 -2.078125 L 6.21875 -3.328125 C 6.21875 -3.742188 6.097656 -4.035156 5.859375 -4.203125 C 5.617188 -4.367188 5.203125 -4.453125 4.609375 -4.453125 L 3.484375 -4.453125 C 2.546875 -4.453125 1.878906 -4.640625 1.484375 -5.015625 C 1.085938 -5.390625 0.890625 -5.972656 0.890625 -6.765625 L 0.890625 -7.546875 C 0.890625 -8.066406 1.003906 -8.488281 1.234375 -8.8125 C 1.472656 -9.144531 1.863281 -9.390625 2.40625 -9.546875 C 2.957031 -9.703125 3.710938 -9.78125 4.671875 -9.78125 C 5.316406 -9.78125 6.144531 -9.726562 7.15625 -9.625 L 7.15625 -8.53125 C 6.03125 -8.695312 5.171875 -8.78125 4.578125 -8.78125 C 3.648438 -8.78125 3.039062 -8.691406 2.75 -8.515625 C 2.4375 -8.328125 2.28125 -8.015625 2.28125 -7.578125 L 2.28125 -6.484375 C 2.28125 -6.148438 2.398438 -5.90625 2.640625 -5.75 C 2.890625 -5.59375 3.3125 -5.515625 3.90625 -5.515625 L 5.0625 -5.515625 C 5.726562 -5.515625 6.242188 -5.4375 6.609375 -5.28125 C 6.984375 -5.125 7.242188 -4.882812 7.390625 -4.5625 C 7.546875 -4.238281 7.625 -3.804688 7.625 -3.265625 L 7.625 -2.5625 C 7.625 -1.882812 7.5 -1.347656 7.25 -0.953125 C 7 -0.554688 6.609375 -0.273438 6.078125 -0.109375 C 5.554688 0.0546875 4.867188 0.140625 4.015625 0.140625 Z M 4.015625 0.140625 "/></g></g></g></svg>